Coordinates
version=1
nRows=29
nColumns=22
inDegrees=yes

Units are S.I. units (second, meters, Newtons, ...)
If the header above contains a line with 'inDegrees', this indicates whether rotational values are in degrees (yes) or radians (no).

endheader
time	pelvis_tilt	pelvis_list	pelvis_rotation	pelvis_tx	pelvis_ty	pelvis_tz	hip_flexion_r	hip_adduction_r	hip_rotation_r	knee_angle_r	ankle_angle_r	subtalar_angle_r	hip_flexion_l	hip_adduction_l	hip_rotation_l	knee_angle_l	ankle_angle_l	subtalar_angle_l	lumbar_extension	lumbar_bending	lumbar_rotation
      5.78000000	     -3.66417124	     -2.41542530	    270.83235078	     -0.34000462	      1.00101222	      0.32104588	     18.68992045	      2.72765420	     15.82457831	    -19.84400359	      5.47867350	     15.82392491	     -5.93519524	     -1.12742255	     12.04640185	    -17.87016712	     21.17998533	     -5.34441162	    -16.04540061	      2.47113828	     -0.38399139
      5.79000000	     -3.98923903	     -2.40971551	    271.39410485	     -0.34205149	      1.00026284	      0.32812453	     18.74708238	      3.19648885	     15.13999685	    -20.77884868	      5.44855082	     15.16096203	     -5.82017963	     -1.59655717	     12.28963563	    -18.81247626	     21.46690425	     -5.22428966	    -15.87704685	      2.88705861	     -0.33926884
      5.80000000	     -4.31779705	     -2.38756824	    271.93660844	     -0.34397131	      0.99965284	      0.33510851	     18.77588613	      3.64719726	     14.46191322	    -21.60549139	      5.51910826	     14.42587036	     -5.61231760	     -2.04390586	     12.44650257	    -19.87577237	     21.66448410	     -5.08222242	    -15.69253073	      3.31084961	     -0.24721373
      5.81000000	     -4.63654259	     -2.35714018	    272.47521985	     -0.34573496	      0.99922716	      0.34195770	     18.76085188	      4.06148955	     13.78274695	    -22.30529728	      5.63313881	     13.71164753	     -5.31409267	     -2.45681610	     12.52892150	    -21.06379573	     21.73536089	     -4.92774341	    -15.50701284	      3.72760395	     -0.12464168
      5.82000000	     -4.92297426	     -2.31663361	    273.00121264	     -0.34737534	      0.99898195	      0.34865685	     18.69319120	      4.43101342	     13.17846148	    -22.86976582	      5.85416260	     12.94127368	     -4.91585600	     -2.81534917	     12.49302682	    -22.39053783	     21.67364551	     -4.72761588	    -15.32195923	      4.10601786	      0.02518569
      5.83000000	     -5.17504463	     -2.27288108	    273.52963132	     -0.34886842	      0.99894297	      0.35519362	     18.56535780	      4.74866334	     12.61440564	    -23.29398518	      6.09156389	     12.20707842	     -4.43097436	     -3.12138758	     12.36772808	    -23.83828586	     21.47841661	     -4.50236814	    -15.14576599	      4.44556029	      0.19559753
      5.84000000	     -5.38857640	     -2.22376104	    274.06176519	     -0.35023012	      0.99909926	      0.36156158	     18.38417425	      5.01767144	     12.11156675	    -23.59427292	      6.35984512	     11.48834320	     -3.85875422	     -3.37708451	     12.14404552	    -25.39922526	     21.13469276	     -4.24540574	    -14.97862768	      4.73944423	      0.38588503
      5.85000000	     -5.55529897	     -2.16870203	    274.59819012	     -0.35146919	      0.99944144	      0.36777626	     18.14539171	      5.22847535	     11.65497378	    -23.76143313	      6.63588212	     10.79249619	     -3.20287734	     -3.58063856	     11.80806997	    -27.06222145	     20.64008403	     -3.96583758	    -14.81597884	      4.97349940	      0.59389427
      5.86000000	     -5.68911208	     -2.11530779	    275.15107662	     -0.35258116	      0.99994676	      0.37381671	     17.85552428	      5.39775952	     11.24161494	    -23.82375895	      6.88980645	     10.13948338	     -2.46622684	     -3.75705305	     11.36230729	    -28.82394037	     20.02681562	     -3.69279568	    -14.67130367	      5.16900347	      0.79425573
      5.87000000	     -5.79732865	     -2.06264599	    275.71957580	     -0.35357934	      1.00058193	      0.37970071	     17.52187264	      5.53355306	     10.85687714	    -23.79130716	      7.11860195	      9.52941511	     -1.65634660	     -3.92392036	     10.79988524	    -30.66085305	     19.30656757	     -3.44899363	    -14.53960610	      5.33206545	      0.99391547
      5.88000000	     -5.88932696	     -2.01202662	    276.30159508	     -0.35448039	      1.00130953	      0.38544029	     17.15316096	      5.64758850	     10.48933597	    -23.68179670	      7.31984741	      8.95461655	     -0.78227578	     -4.10119427	     10.11751738	    -32.54973535	     18.50810193	     -3.25332460	    -14.42041806	      5.47148611	      1.19385787
      5.89000000	     -5.97942732	     -1.96869241	    276.89579899	     -0.35529771	      1.00209529	      0.39104561	     16.75599505	      5.75640616	     10.12488511	    -23.51414944	      7.48959675	      8.42464434	      0.14290777	     -4.31551689	      9.31229822	    -34.46515984	     17.67250719	     -3.13360216	    -14.31797763	      5.60345954	      1.40013491
      5.90000000	     -6.06828232	     -1.93085766	    277.50062682	     -0.35603396	      1.00289828	      0.39653395	     16.33682130	      5.86223182	      9.76897493	    -23.29828430	      7.64069714	      7.91205019	      1.10830881	     -4.57531583	      8.38976324	    -36.37532145	     16.82970247	     -3.09322195	    -14.22811622	      5.73036553	      1.60472921
      5.91000000	     -6.16663326	     -1.90823161	    278.10939652	     -0.35671374	      1.00369780	      0.40191959	     15.89890016	      5.97999357	      9.40506288	    -23.05472039	      7.77187133	      7.43397063	      2.09089220	     -4.90151273	      7.35274516	    -38.24899335	     16.03041787	     -3.15305830	    -14.15903978	      5.86108063	      1.81935832
      5.92000000	     -6.27351296	     -1.90214061	    278.71825711	     -0.35733565	      1.00446806	      0.40721900	     15.44754151	      6.11022378	      9.02948453	    -22.79642672	      7.88951496	      6.98035901	      3.07343690	     -5.29757663	      6.20903496	    -40.05206400	     15.31574721	     -3.31348445	    -14.11137712	      5.99769664	      2.04502437
      5.93000000	     -6.38472164	     -1.91432364	    279.32553919	     -0.35790712	      1.00518755	      0.41243622	     14.99029337	      6.25394209	      8.65861792	    -22.54517540	      8.00892457	      6.52908685	      4.04064868	     -5.75373230	      4.99684704	    -41.75902513	     14.71098584	     -3.57617328	    -14.08707216	      6.13267942	      2.27968631
      5.94000000	     -6.49788996	     -1.95294268	    279.92522458	     -0.35841299	      1.00586675	      0.41759142	     14.51929520	      6.40840870	      8.27690848	    -22.30158846	      8.12794960	      6.10208581	      4.96571003	     -6.26727714	      3.71865014	    -43.33620736	     14.24737167	     -3.92650235	    -14.09308956	      6.27043521	      2.53509660
      5.95000000	     -6.60070399	     -2.01606736	    280.51716180	     -0.35885794	      1.00649419	      0.42269213	     14.04193989	      6.56382952	      7.89318918	    -22.08350640	      8.26314832	      5.67926746	      5.83685752	     -6.81111547	      2.41499055	    -44.76393746	     13.92878361	     -4.35530063	    -14.12801913	      6.39099230	      2.80385296
      5.96000000	     -6.67899813	     -2.10343468	    281.10690638	     -0.35920193	      1.00707170	      0.42771286	     13.56198376	      6.70465015	      7.51885316	    -21.90474509	      8.42464443	      5.24118336	      6.64862825	     -7.35696407	      1.11059037	    -46.03057672	     13.74997561	     -4.86319065	    -14.19928966	      6.49128426	      3.06338422
      5.97000000	     -6.74892200	     -2.22197020	    281.68595338	     -0.35945128	      1.00761483	      0.43267254	     13.07483645	      6.84888665	      7.14720558	    -21.76354870	      8.57243148	      4.90932106	      7.38845758	     -7.91412175	     -0.18340703	    -47.12688154	     13.73569369	     -5.29570041	    -14.30880903	      6.58836445	      3.34173918
      5.98000000	     -6.76724758	     -2.34181232	    282.27280330	     -0.35954047	      1.00811064	      0.43757195	     12.59998328	      6.93730760	      6.74745756	    -21.66032466	      8.76037213	      4.47374052	      8.07077019	     -8.40006883	     -1.41133272	    -48.02986938	     13.79471501	     -5.84835509	    -14.42528287	      6.63316903	      3.62496955
      5.99000000	     -6.75065556	     -2.47913381	    282.87231419	     -0.35946929	      1.00857079	      0.44237960	     12.12629848	      6.99364699	      6.35085571	    -21.60143252	      8.98571943	      4.10428019	      8.69550566	     -8.82742669	     -2.55727741	    -48.76197982	     13.93261804	     -6.30515868	    -14.56984622	      6.65396149	      3.87699035
      6.00000000	     -6.68514737	     -2.61558789	    283.49473432	     -0.35920106	      1.00899785	      0.44709351	     11.66285136	      6.99191719	      5.92493178	    -21.57598024	      9.24571615	      3.73273672	      9.27680642	     -9.15732512	     -3.59037940	    -49.31373077	     14.09927866	     -6.71129581	    -14.72301682	      6.63348474	      4.11531075
      6.01000000	     -6.58633541	     -2.74886337	    284.14533064	     -0.35874858	      1.00937841	      0.45168168	     11.21855465	      6.94940125	      5.48261523	    -21.58828634	      9.51749269	      3.41154465	      9.83573552	     -9.40325548	     -4.50333823	    -49.70970346	     14.29003167	     -6.98545427	    -14.88335778	      6.59076790	      4.31070237
      6.02000000	     -6.44524066	     -2.87127988	    284.83220240	     -0.35809288	      1.00971957	      0.45613840	     10.79494067	      6.85107450	      5.00616619	    -21.63421241	      9.81411218	      3.12876677	     10.38121906	     -9.54445609	     -5.28337279	    -49.95528805	     14.46053022	     -7.13138692	    -15.04422274	      6.51642459	      4.46141064
      6.03000000	     -6.27931959	     -2.97896360	    285.55207890	     -0.35725204	      1.01001775	      0.46046343	     10.39220215	      6.71462432	      4.50000896	    -21.69823124	     10.12026378	      2.89334624	     10.92549397	     -9.60300089	     -5.94015706	    -50.06390434	     14.59919705	     -7.15348910	    -15.19746061	      6.42613830	      4.58893074
      6.04000000	     -6.09536207	     -3.07315693	    286.31168518	     -0.35622536	      1.01027416	      0.46466879	      9.99644830	      6.54764194	      3.96854846	    -21.75952897	     10.46481170	      2.71044569	     11.47206203	     -9.58976592	     -6.47594274	    -50.04851079	     14.71891728	     -7.08411285	    -15.33943930	      6.32800099	      4.68025846
      6.05000000	     -5.89250765	     -3.15848187	    287.11412524	     -0.35502186	      1.01050734	      0.46871875	      9.61448026	      6.34721328	      3.37088326	    -21.83438636	     10.75517440	      2.47715147	     12.02506198	     -9.51510021	     -6.91091470	    -49.92871000	     14.77706218	     -6.87698746	    -15.48388901	      6.22333919	      4.72608747
      6.06000000	     -5.68678136	     -3.23365720	    287.95073249	     -0.35366410	      1.01071343	      0.47265808	      9.22792370	      6.13614295	      2.75496343	    -21.88587989	     11.07644780	      2.29832367	     12.58195153	     -9.40740252	     -7.26947066	    -49.70890753	     14.82055895	     -6.59933381	    -15.61817657	      6.12431327	      4.75294940
